<svg height="512pt" viewBox="-68 0 512 512" width="512pt" xmlns="http://www.w3.org/2000/svg"><path d="m321.382812 227.980469h-265.824218c-25.335938 0-45.871094-20.539063-45.871094-45.875v-128.734375c0-25.335938 20.539062-45.871094 45.871094-45.871094h265.824218c25.332032 0 45.871094 20.539062 45.871094 45.871094v128.734375c0 25.335937-20.539062 45.875-45.871094 45.875zm0 0" fill="#80c56e"/><path d="m321.382812 7.5h-3.035156v220.480469h3.035156c25.332032 0 45.871094-20.539063 45.871094-45.875v-128.734375c0-25.332032-20.539062-45.871094-45.871094-45.871094zm0 0" fill="#70b25d"/><path d="m336.484375 331.757812c-27.386719-13.90625-56.246094-23.710937-85.710937-29.429687-13.527344-2.621094-23.367188-14.347656-23.367188-28.128906v-44.585938h-77.871094v44.585938c0 13.78125-9.839844 25.507812-23.371094 28.132812-29.460937 5.714844-58.320312 15.519531-85.710937 29.425781-20.214844 10.261719-32.953125 31.011719-32.953125 53.683594v109.144532c0 5.476562 4.441406 9.914062 9.914062 9.914062h342.109376c5.476562 0 9.914062-4.4375 9.914062-9.914062v-109.144532c0-22.671875-12.734375-43.421875-32.953125-53.683594zm0 0" fill="#fed6a6"/><path d="m336.484375 331.757812c-27.386719-13.90625-56.246094-23.710937-85.710937-29.429687-13.527344-2.621094-23.367188-14.347656-23.367188-28.128906v-44.585938h-48.90625v75.230469c0 13.78125 9.839844 25.503906 23.367188 28.128906 29.464843 5.714844 58.324218 15.523438 85.710937 29.425782 20.21875 10.261718 32.953125 31.011718 32.953125 53.6875v88.414062h38.992188c5.476562 0 9.917968-4.4375 9.917968-9.914062v-109.144532c-.003906-22.671875-12.738281-43.421875-32.957031-53.683594zm0 0" fill="#efc79c"/><path d="m336.484375 331.757812c-25.398437-12.898437-52.066406-22.261718-79.308594-28.113281.003907.082031.015625.335938.011719.25-.007812-.25-68.71875 107.324219-68.71875 107.324219s-68.71875-107.410156-68.71875-107.324219c0 .085938.011719-.167969.011719-.25-27.238281 5.851563-53.90625 15.21875-79.308594 28.113281-20.214844 10.261719-32.953125 31.011719-32.953125 53.683594v109.144532c0 5.476562 4.441406 9.914062 9.914062 9.914062h342.109376c5.476562 0 9.914062-4.4375 9.914062-9.914062v-109.144532c0-22.671875-12.734375-43.421875-32.953125-53.683594zm0 0" fill="#d7dee3"/><path d="m359.523438 504.5c5.476562 0 9.917968-4.4375 9.917968-9.914062v-109.144532c0-22.671875-12.738281-43.421875-32.953125-53.683594-25.402343-12.898437-52.070312-22.261718-79.308593-28.113281 0 .0625.007812.207031.011718.25-.011718-.085937-10.726562 16.625-23.6875 36.878907 18.472656 5.539062 36.574219 12.742187 54.078125 21.625 20.214844 10.261718 32.953125 31.011718 32.953125 53.6875v88.414062zm0 0" fill="#ccd2d6"/><path d="m257.191406 303.894531 26.476563 28.546875c4.585937 4.945313 2.917969 12.9375-3.265625 15.628906l-28.410156 12.382813-1.828126 20.085937c-.398437 4.386719-3.675781 7.964844-8.011718 8.746094l-53.683594 21.933594zm0 0" fill="#b2b9bf"/><path d="m359.523438 504.5c5.476562 0 9.917968-4.4375 9.917968-9.914062v-109.144532c0-22.671875-12.738281-43.421875-32.953125-53.683594-25.402343-12.898437-52.070312-22.261718-79.308593-28.113281 0 .0625.007812.207031.011718.25-.011718-.085937-10.726562 16.625-23.6875 36.878907 18.472656 5.539062 36.574219 12.742187 54.078125 21.625 20.214844 10.261718 32.953125 31.011718 32.953125 53.6875v88.414062zm0 0" fill="#ccd2d6"/><path d="m257.191406 303.894531-23.625 36.898438c11.726563 3.519531 23.304688 7.714843 34.671875 12.578125l12.164063-5.300782c6.183594-2.691406 7.851562-10.683593 3.265625-15.628906zm0 0" fill="#a0a9af"/><path d="m119.75 303.894531-26.476562 28.546875c-4.585938 4.945313-2.917969 12.9375 3.265624 15.628906l28.410157 12.382813 1.824219 20.085937c.402343 4.386719 3.679687 7.964844 8.011718 8.746094l53.683594 21.933594zm0 0" fill="#b2b9bf"/><path d="m70.339844 106.445312v160.921876c0 3.160156 2.5625 5.71875 5.71875 5.71875h132.746094c54.007812 0 97.792968-43.785157 97.792968-97.792969v-68.847657c0-51.023437-43.820312-91.035156-94.632812-86.40625h-46.988282c-50.816406-4.628906-94.636718 35.382813-94.636718 86.40625zm0 0" fill="#fdbd37"/><path d="m211.964844 20.042969h-32.996094c43.71875 3.996093 78.722656 40.796875 78.722656 86.402343v68.847657c0 54.011719-43.78125 97.796875-97.792968 97.796875h48.90625c54.011718 0 97.796874-43.785156 97.796874-97.796875v-68.847657c-.003906-51.023437-43.824218-91.035156-94.636718-86.402343zm0 0" fill="#fa9a39"/><path d="m105.304688 129.925781h-13.789063c-11.699219 0-21.175781 9.484375-21.175781 21.1875v10.019531c0 11.703126 9.476562 21.1875 21.175781 21.1875h13.789063zm0 0" fill="#fed6a6"/><path d="m271.636719 129.925781h13.789062c11.699219 0 21.171875 9.484375 21.171875 21.1875v10.019531c0 11.703126-9.472656 21.1875-21.171875 21.1875h-13.789062zm0 0" fill="#fed6a6"/><path d="m216.933594 77.179688c-23.097656 55.808593-99.894532 45.179687-115.160156 42.46875-1.386719-.246094-2.648438.824218-2.640626 2.230468l.273438 72.191406c0 59.210938 62.15625 87.089844 89.0625 87.664063 26.910156-.574219 89.0625-28.453125 89.0625-87.664063l.273438-89.382812c.007812-2.285156-1.988282-4.042969-4.257813-3.765625-7.492187.90625-24.699219-.765625-50.519531-25.0625-1.929688-1.820313-5.078125-1.128906-6.09375 1.320313zm0 0" fill="#ffe3c2"/><path d="m227.652344 80.054688-.171875 114.015624c0 44.53125-35.160157 71.339844-64.039063 82.140626 9.519532 3.558593 18.359375 5.382812 25.027344 5.523437 26.910156-.574219 89.0625-28.457031 89.0625-87.664063l.289062-94.207031s-17.5625 8.644531-50.167968-19.808593zm0 0" fill="#fed6a6"/><path d="m226.964844 86.734375-27.417969 1.125c-9.5625.390625-16.28125-9.292969-12.570313-18.109375l9.964844-23.671875c3.710938-8.820313 15.332032-10.78125 21.734375-3.671875l18.359375 20.394531zm0 0" fill="#fc6a58"/><path d="m246.929688 95.136719 18.359374 20.394531c6.402344 7.109375 18.023438 5.144531 21.734376-3.671875l9.964843-23.671875c3.710938-8.820312-3.007812-18.503906-12.566406-18.109375l-27.417969 1.125zm0 0" fill="#fc6a58"/><path d="m243.953125 96.207031-15.675781-6.597656c-1.945313-.816406-2.859375-3.058594-2.039063-5.007813l8.765625-20.832031c.820313-1.945312 3.0625-2.859375 5.011719-2.042969l15.671875 6.597657c1.945312.820312 2.859375 3.0625 2.042969 5.011719l-8.769531 20.828124c-.820313 1.949219-3.0625 2.863282-5.007813 2.042969zm0 0" fill="#e35052"/><path d="m189.867188 199.007812h6.738281c4.144531 0 7.5-3.359374 7.5-7.5 0-4.144531-3.355469-7.5-7.5-7.5h-2.453125v-16.164062c0-4.140625-3.355469-7.5-7.5-7.5-4.140625 0-7.5 3.359375-7.5 7.5v20.445312c0 5.910157 4.808594 10.71875 10.714844 10.71875zm0 0"/><path d="m214.300781 230.527344c0-4.144532-3.355469-7.5-7.5-7.5h-36.664062c-4.140625 0-7.5 3.355468-7.5 7.5 0 4.140625 3.359375 7.5 7.5 7.5h36.664062c4.144531 0 7.5-3.359375 7.5-7.5zm0 0"/><path d="m154.578125 158.566406c-3.328125-2.464844-8.023437-1.765625-10.488281 1.566406-1.628906 2.199219-4.117188 3.460938-6.828125 3.460938-2.710938 0-5.199219-1.261719-6.828125-3.460938-2.464844-3.332031-7.164063-4.03125-10.492188-1.566406s-4.03125 7.160156-1.566406 10.488282c4.421875 5.972656 11.484375 9.542968 18.886719 9.542968 7.402343 0 14.464843-3.566406 18.886719-9.542968 2.460937-3.328126 1.757812-8.023438-1.570313-10.488282zm0 0"/><path d="m239.679688 178.597656c7.402343 0 14.464843-3.566406 18.886718-9.542968 2.460938-3.328126 1.761719-8.023438-1.566406-10.488282s-8.023438-1.765625-10.492188 1.566406c-1.628906 2.199219-4.117187 3.460938-6.828124 3.460938-2.710938 0-5.199219-1.261719-6.828126-3.460938-2.464843-3.332031-7.160156-4.03125-10.488281-1.566406-3.332031 2.464844-4.03125 7.160156-1.566406 10.488282 4.417969 5.972656 11.480469 9.542968 18.882813 9.542968zm0 0"/><path d="m339.882812 325.066406c-27.699218-14.058594-57.199218-24.1875-87.679687-30.097656-8.992187-1.746094-15.773437-8.957031-17.074219-17.710938 20.507813-5.289062 39.089844-16.730468 53.152344-32.898437 16.648438-19.140625 25.816406-43.667969 25.816406-69.066406v-68.847657c0-26.421874-11.191406-51.796874-30.703125-69.609374-11.652343-10.640626-25.71875-18.078126-40.761719-21.835938h78.746094c21.160156 0 38.375 17.214844 38.375 38.371094v128.734375c0 19.769531-14.808594 36.179687-34.441406 38.175781-4.121094.417969-7.121094 4.097656-6.703125 8.21875.394531 3.863281 3.652344 6.742188 7.453125 6.742188.253906 0 .507812-.011719.765625-.039063 27.320313-2.773437 47.925781-25.601563 47.925781-53.097656v-128.734375c0-29.429688-23.941406-53.371094-53.371094-53.371094h-265.824218c-29.429688 0-53.371094 23.941406-53.371094 53.371094v128.734375c0 20.433593 11.378906 38.769531 29.699219 47.847656 3.714843 1.84375 8.210937.320313 10.050781-3.390625s.320312-8.210938-3.390625-10.046875c-13.175781-6.53125-21.359375-19.714844-21.359375-34.410156v-128.734375c0-21.15625 17.214844-38.371094 38.371094-38.371094h78.75c-15.046875 3.757812-29.109375 11.195312-40.761719 21.835938-19.515625 17.8125-30.707031 43.1875-30.707031 69.609374v160.921876c0 7.289062 5.933594 13.21875 13.222656 13.21875h64.96875c-2.320312 7.207031-8.46875 12.863281-16.292969 14.382812-30.480469 5.910156-59.980469 16.039062-87.679687 30.097656-22.859375 11.605469-37.058594 34.738282-37.058594 60.371094v109.148438c0 9.601562 7.8125 17.414062 17.414062 17.414062h342.109376c9.605468 0 17.414062-7.8125 17.414062-17.414062v-109.148438c.003906-25.632812-14.199219-48.765625-37.054688-60.371094zm-61.152343 14.5c-.089844.429688-.382813 1.21875-1.324219 1.628906l-28.410156 12.382813c-2.511719 1.09375-4.226563 3.46875-4.472656 6.195313l-1.828126 20.085937c-.09375 1.023437-.917968 1.667969-1.871093 2.042969-6.566407 2.597656-33.265625 13.417968-33.265625 13.417968l50.722656-79.222656 19.886719 21.441406c.699219.757813.652343 1.59375.5625 2.027344zm-140.328125-85.636718c-14.367188-10.976563-31.496094-30.273438-31.496094-59.886719l-.25-66.050781c22.117188 2.988281 80.945312 6.613281 109.160156-33.292969l6.292969-.257813c.945313.863282 2.042969 1.570313 3.257813 2.082032l15.675781 6.597656c1.230469.515625 2.503906.800781 3.765625.867187l14.90625 16.558594c2.855468 3.171875 6.527344 5.3125 10.523437 6.257813l-.203125 67.265624c0 29.585938-17.128906 48.882813-31.496094 59.859376-17.707031 13.53125-38.316406 19.996093-50.066406 20.300781-11.75-.304688-32.363281-6.769531-50.070312-20.300781zm146.324218-176.359376c4.578126 0 6.417969 5.167969 5.347657 7.707032l-9.960938 23.671875c-1.550781 3.550781-7.484375 3.523437-9.25 1.5625l-14.066406-15.625 6.925781-16.453125zm14.371094 48.332032c-3.292968-1.796875-6.980468-2.964844-10.894531-3.34375 2.460937-2.0625 4.4375-4.710938 5.734375-7.789063l5.074219-12.050781c.058593 1.238281.085937 23.183594.085937 23.183594zm0 35.230468c0 7.546876-6.464844 13.6875-14.003906 13.6875l.113281-37.394531c7.539063 0 13.890625 6.140625 13.890625 13.6875zm-55.625-73.261718-8.898437-3.746094 5.917969-14.058594 8.898437 3.746094zm-23.226562-8.367188-21.007813.859375c-3.894531.003907-7.226562-3.03125-5.347656-7.703125l9.964844-23.675781c1.53125-4.027344 7.402343-3.609375 9.246093-1.558594l14.070313 15.625zm56.71875 155.011719c-1.65625 1.902344-3.382813 3.726563-5.175782 5.472656 2.355469-2.292969 3.964844-6.757812 5.34375-9.703125 1.703126-3.632812 3.140626-7.386718 4.300782-11.226562 2.886718-9.578125 3.582031-19.292969 3.613281-29.238282 4.65625 0 9.433594-1.117187 13.324219-3.09375-2.246094 17.621094-9.652344 34.273438-21.40625 47.789063zm-173.304688-186.605469c16.40625-14.980468 38.5-22.417968 60.636719-20.398437.226563.019531 48.121094.019531 48.347656 0 22.125-2.019531 44.226563 5.417969 60.636719 20.398437 4.808594 4.394532 9.015625 9.328125 12.5625 14.675782-.570312-.023438-23.992188.910156-23.992188.910156-.933593-.851563-2.023437-1.5625-3.253906-2.082032l-15.671875-6.597656c-1.230469-.515625-2.503906-.796875-3.765625-.867187l-14.910156-16.558594c-4.734375-5.257813-11.730469-7.691406-18.699219-6.515625-6.976562 1.179688-12.777343 5.773438-15.519531 12.296875l-9.964844 23.671875c-2.746094 6.519531-1.976562 13.882812 2.058594 19.691406 3.203125 4.621094 8.046875 7.648438 13.449219 8.554688-29.175781 26.636718-81.25 19.171875-92.488281 17.175781-2.847657-.503906-5.761719.269531-7.980469 2.136719-2.21875 1.871094-3.484375 4.605468-3.472657 7.503906l.003907.519531h-.117188c-4.949219 0-9.609375 1.261719-13.675781 3.480469v-19.457031c-.003906-22.222657 9.40625-43.554688 25.816406-58.539063zm-25.820312 103.203125c0-7.546875 6.308594-13.6875 13.851562-13.6875l.140625 37.394531c-7.539062 0-13.992187-6.140624-13.992187-13.6875zm0 35.230469c4.066406 2.21875 9.101562 3.476562 14.050781 3.476562.0625 16.617188 2.867187 32.3125 11.257813 46.863282 6.476562 11.230468 15.4375 20.898437 25.671874 28.800781.042969.035156.089844.070313.132813.105469h-51.113281zm78.457031 95.09375c12.15625 5.101562 23.632813 7.617188 32.011719 7.796875h.160156.160156c8.382813-.179687 19.859375-2.695313 32.015625-7.796875 2.621094 12.707031 12.015625 23.214844 24.597657 27.210938l-56.773438 88.660156-56.769531-88.660156c12.582031-3.996094 21.972656-14.503907 24.597656-27.210938zm-57.523437 56.101562 19.886718-21.4375 50.722656 79.21875s-24.859374-10.078124-33.265624-13.414062c-.953126-.378906-1.777344-1.023438-1.871094-2.046875l-1.828125-20.085937c-.246094-2.726563-1.960938-5.101563-4.472657-6.195313l-28.410156-12.382813c-.941406-.410156-1.234375-1.195312-1.324218-1.628906-.09375-.433594-.140626-1.269531.5625-2.027344zm263.167968 157.046876c0 1.328124-1.085937 2.414062-2.417968 2.414062h-39.71875v-80.308594c0-4.144531-3.355469-7.5-7.5-7.5-4.140626 0-7.5 3.355469-7.5 7.5v80.308594h-108.835938v-25.433594c0-4.140625-3.355469-7.5-7.5-7.5-4.140625 0-7.5 3.359375-7.5 7.5v25.433594h-108.835938v-80.308594c0-4.144531-3.355468-7.5-7.5-7.5-4.140624 0-7.5 3.355469-7.5 7.5v80.308594h-39.71875c-1.328124 0-2.414062-1.082031-2.414062-2.414062v-109.148438c0-19.953125 11.054688-37.960938 28.847656-46.996094 17.144532-8.703125 35.011719-15.824218 53.386719-21.300781l-9.460937 10.199219c-3.804688 4.101562-5.390626 9.820312-4.246094 15.292968 1.144531 5.476563 4.886718 10.078126 10.015625 12.3125l24.339843 10.609376 1.425782 15.664062c.671875 7.417969 6.074218 13.578125 13.269531 15.265625l48.394531 19.773437v20.398438c0 4.144531 3.355469 7.5 7.5 7.5 4.140625 0 7.5-3.355469 7.5-7.5v-20.398438l48.394532-19.773437c7.191406-1.6875 12.59375-7.847656 13.269531-15.265625l1.425781-15.664062 24.339844-10.609376c5.125-2.234374 8.871094-6.835937 10.015625-12.3125 1.144531-5.476562-.445313-11.191406-4.246094-15.292968l-9.460937-10.199219c18.375 5.472656 36.238281 12.597656 53.382812 21.300781 17.796875 9.035156 28.847656 27.042969 28.847656 46.996094zm0 0"/></svg>