<svg height="512" viewBox="0 0 64 64" width="512" xmlns="http://www.w3.org/2000/svg"><g id="thermometer-people-coronavirus-tempurature-covid19"><path d="m25 13h14a4 4 0 0 1 4 4v9a11 11 0 0 1 -11 11 11 11 0 0 1 -11-11v-9a4 4 0 0 1 4-4z" fill="#ffbcab"/><path d="m21 20v-3a4 4 0 0 1 4-4h14a4 4 0 0 1 4 4v3h2a1.975 1.975 0 0 1 1 .279v-9.279a8 8 0 0 0 -8-8h-8a4 4 0 0 0 -4 4 2 2 0 0 0 -2-2h-2a4 4 0 0 0 -4 4v11.279a1.975 1.975 0 0 1 1-.279z" fill="#414042"/><path d="m21 20h-2a1.975 1.975 0 0 0 -1 .279 2 2 0 0 0 -1 1.721v3a2.006 2.006 0 0 0 2 2h2.05c-.029-.33-.05-.662-.05-1z" fill="#ffac96"/><path d="m46 20.279a1.975 1.975 0 0 0 -1-.279h-2v6c0 .338-.03.669-.06 1h2.06a2.006 2.006 0 0 0 2-2v-3a2 2 0 0 0 -1-1.721z" fill="#ffac96"/><path d="m36 10h-8a2 2 0 0 0 -2 2v2a2 2 0 0 0 2 2h8a2 2 0 0 0 2-2v-2a2 2 0 0 0 -2-2z" fill="#ff6243"/><path d="m36 10v2a2 2 0 0 1 -2 2h-8a2 2 0 0 0 2 2h8a2 2 0 0 0 2-2v-2a2 2 0 0 0 -2-2z" fill="#ff5023"/><path d="m47.944 30a4.012 4.012 0 0 0 -1.789.422l-.31.156a4.012 4.012 0 0 1 -1.789.422h-9.056v3h9.056a4.012 4.012 0 0 1 1.789.422l.31.156a4.012 4.012 0 0 0 1.789.422h9.056v-5z" fill="#ffcd00"/><path d="m46.155 32.578-.31-.156a4.012 4.012 0 0 0 -1.789-.422h-9.056v2h9.056a4.012 4.012 0 0 1 1.789.422l.31.156a4.012 4.012 0 0 0 1.789.422h9.056v-2h-9.056a4.012 4.012 0 0 1 -1.789-.422z" fill="#ebbf00"/><path d="m58.5 30h-1.5v5h1.5a2.5 2.5 0 0 0 0-5z" fill="#d80027"/><path d="m58.5 33h-1.5v2h1.5a2.5 2.5 0 0 0 2.289-3.5 2.5 2.5 0 0 1 -2.289 1.5z" fill="#bd0022"/><path d="m31 32.5a1.5 1.5 0 0 0 1.5 1.5h2.5v-3h-2.5a1.5 1.5 0 0 0 -1.5 1.5z" fill="#d80027"/><path d="m20 35c0-1.1-2-4-2-4s-2 2.9-2 4a2 2 0 0 0 4 0z" fill="#57a4ff"/><path d="m55.9 50.005a10 10 0 0 0 -9.95-9.005h-6.95c-.027 0-.052-.007-.078-.008a6.992 6.992 0 0 1 -13.844 0c-.026 0-.051.008-.078.008h-6.388a10 10 0 0 0 -9.889 8.517l-1.723 11.483h50z" fill="#006df0"/><path d="m55.9 50.005a10 10 0 0 0 -9.95-9.005h-2a10 10 0 0 1 9.95 9.005l1.1 10.995h2z" fill="#005ece"/><path d="m32 47a7 7 0 0 0 6.922-6.008 2 2 0 0 1 -1.922-1.992v-3.21a10.936 10.936 0 0 1 -10 0v3.21a2 2 0 0 1 -1.922 1.992 7 7 0 0 0 6.922 6.008z" fill="#ffac96"/><path d="m37 37.79v-2a10.936 10.936 0 0 1 -10 0v2a10.936 10.936 0 0 0 10 0z" fill="#ff9478"/><path d="m30.212 27.615a1 1 0 0 0 .788.385h2a1 1 0 0 0 0-2h-.719l.689-2.757a1 1 0 1 0 -1.94-.486l-1 4a1 1 0 0 0 .182.858z" fill="#6d6e71"/><path d="m19 51a1 1 0 0 1 1 1v9a0 0 0 0 1 0 0h-2a0 0 0 0 1 0 0v-9a1 1 0 0 1 1-1z" fill="#005ece"/><path d="m45 51a1 1 0 0 1 1 1v9a0 0 0 0 1 0 0h-2a0 0 0 0 1 0 0v-9a1 1 0 0 1 1-1z" fill="#005ece"/><path d="m36 23a1 1 0 0 1 -1-1v-1a1 1 0 0 1 2 0v1a1 1 0 0 1 -1 1z" fill="#58595b"/><path d="m28 23a1 1 0 0 1 -1-1v-1a1 1 0 0 1 2 0v1a1 1 0 0 1 -1 1z" fill="#58595b"/><path d="m39 22h-.515a6.958 6.958 0 0 1 -4.95-2.05l-.243-.243a1 1 0 0 1 1.416-1.414l.242.243a4.969 4.969 0 0 0 3.535 1.464h.515a1 1 0 0 1 0 2z" fill="#6d6e71"/><path d="m25.515 22h-.515a1 1 0 0 1 0-2h.515a4.967 4.967 0 0 0 3.535-1.464l.243-.243a1 1 0 0 1 1.414 1.414l-.243.243a6.954 6.954 0 0 1 -4.949 2.05z" fill="#6d6e71"/><path d="m24 5h-2a4 4 0 0 0 -4 4v11.279a1.975 1.975 0 0 1 1-.279h2v-3a4 4 0 0 1 4-4h1v-6a2 2 0 0 0 -2-2z" fill="#58595b"/></g></svg>