<svg height="512" viewBox="0 0 512 512" width="512" xmlns="http://www.w3.org/2000/svg"><g id="Filled_outline" data-name="Filled outline"><path d="m272 64h80v32h-80z" fill="#dfdfdd"/><path d="m262.236 176a34.233 34.233 0 0 0 -23.654 9.373l-23.654 22.627a21.94 21.94 0 0 0 0 32 23.942 23.942 0 0 0 33.072 0l-16.346 16a21.939 21.939 0 0 0 0 32 23.047 23.047 0 0 0 32.346 0l-15.62 16a21.939 21.939 0 0 0 0 32 24.418 24.418 0 0 0 33.451 0l33.452-32h25.088v22.627c0 18.432 15.619 33.373 34.887 33.373h48.742v-200z" fill="#f6a368"/><path d="m256 128h112v248h-112z" fill="#4db6e4"/><path d="m256 168h80v152h-80z" fill="#85ccd5"/><path d="m432 144-16-64-38.422-44.825a32 32 0 0 0 -24.296-11.175h-69.282a20 20 0 0 0 -20 20 20 20 0 0 0 20 20h52l32 40v88l-39.939-19.97a26.9 26.9 0 0 0 -36.094 12.03l-.36.72a26.9 26.9 0 0 0 11.179 35.649l65.214 35.571a124.239 124.239 0 0 0 72.829 113.1 76.927 76.927 0 0 0 31.836 6.9h15.335v-152z" fill="#fdbf92"/><path d="m296 96h32v32h-32z" fill="#d5d5d3"/><path d="m272 96h-88v16h-32v-18.256a29.744 29.744 0 0 1 29.744-29.744h90.256z" fill="#d5d5d3"/><path d="m168 216a24 24 0 0 1 -24-24 39.637 39.637 0 0 1 6.656-21.985l17.344-26.015 17.344 26.015a39.637 39.637 0 0 1 6.656 21.985 24 24 0 0 1 -24 24z" fill="#4db6e4"/><path d="m352 360-11.519-4.608c-40.081-9.887-87.299-1.274-116.481 28.608h-72a24 24 0 0 0 -24 24 24 24 0 0 0 24 24h-24l-66.09-50.887a23.335 23.335 0 0 0 -31.076 1.721 23.334 23.334 0 0 0 .733 33.7l73.614 65.407a24 24 0 0 0 15.941 6.059h158.878l80-32 136 8v-104z" fill="#fdc8a2"/><path d="m168 224a32.036 32.036 0 0 0 32-32 47.489 47.489 0 0 0 -8-26.422l-17.344-26.016a8 8 0 0 0 -13.312 0l-17.344 26.016a47.489 47.489 0 0 0 -8 26.422 32.036 32.036 0 0 0 32 32zm-10.688-49.547 10.688-16.031 10.688 16.031a31.539 31.539 0 0 1 5.312 17.547 16 16 0 0 1 -32 0 31.539 31.539 0 0 1 5.312-17.547z"/><path d="m357.029 448.572-78.57 31.428h-157.337a15.99 15.99 0 0 1 -10.628-4.039l-53.958-47.942-10.627 11.96 53.958 47.943a31.97 31.97 0 0 0 21.255 8.078h158.878c1.018 0 81.312-31.909 81.312-31.909l134.218 7.895.94-15.972s-138.348-7.878-139.441-7.442z"/><path d="m32 399.667a15.334 15.334 0 0 1 24.91-12.307l.116.092 66.09 50.887a8 8 0 0 0 4.884 1.661h112v-16h-88a16 16 0 0 1 0-32h72a8 8 0 0 0 5.724-2.411c12.8-13.11 30.164-22.449 50.2-27.006a129.6 129.6 0 0 1 58.106.447l11 4.4c.944.376 146.97.57 146.97.57v-16h-69.262a115.829 115.829 0 0 1 -50.738-96 8 8 0 0 0 -4.17-7.023l-65.208-35.57a18.836 18.836 0 0 1 -7.859-25.044l.365-.73a18.624 18.624 0 0 1 8.74-8.584 18.913 18.913 0 0 1 12.811-1.283c1.337.345 91.743 45.389 91.743 45.389l7.156-14.31-43.578-21.789v-83.056a8 8 0 0 0 -1.753-5l-32-40a8 8 0 0 0 -6.247-3h-52a12 12 0 0 1 0-24h69.28a23.985 23.985 0 0 1 18.226 8.376l37.191 43.4 15.542 62.168a7.992 7.992 0 0 0 1.207 2.648l56 80 13.108-9.176-55.154-78.791-15.639-62.565a7.987 7.987 0 0 0 -1.687-3.266l-38.422-44.832a39.962 39.962 0 0 0 -30.372-13.962h-69.28a27.991 27.991 0 0 0 -25.293 40h-76.963a37.868 37.868 0 0 0 -9.22 1.136l3.9 15.518a21.87 21.87 0 0 1 5.32-.654h82.256v16h-80a8 8 0 0 0 -8 8v8h-16v-10.256a21.761 21.761 0 0 1 7.389-16.332l-10.571-12.012a37.77 37.77 0 0 0 -12.818 28.344v18.256a8 8 0 0 0 8 8h32a8 8 0 0 0 8-8v-8h96v16h-32a8 8 0 0 0 -8 8v42.452a41.582 41.582 0 0 0 -14.951 9.138l-23.649 22.63a29.936 29.936 0 0 0 0 43.561 31.78 31.78 0 0 0 13.718 7.749 29.925 29.925 0 0 0 3 40.25 31.326 31.326 0 0 0 21.7 8.85h.18v54.4a110.517 110.517 0 0 0 -27.286 18.97h-68.712a32.013 32.013 0 0 0 -30.81 40.66l-54.344-41.844a31.334 31.334 0 0 0 -40.685 47.616l.092.083 8.434 7.493 10.626-11.961-8.381-7.447a15.2 15.2 0 0 1 -4.932-10.933zm369.278-47.667h-25.278v-32.861a131.611 131.611 0 0 0 25.278 32.861zm-49.278-248a7.953 7.953 0 0 0 4.591-1.455l3.409 4.261v13.194h-24v-16zm-72-32h52.155l11.845 14.806v1.194h-64zm24 32h16v16h-16zm56 32v43.056l-16-8v-3.056a8 8 0 0 0 -8-8h-72v-24zm-139.54 98.22a13.938 13.938 0 0 1 0-20.44l23.64-22.622a25.362 25.362 0 0 1 3.9-3.033v40.561l-5.553 5.553a15.932 15.932 0 0 1 -21.987-.019zm27.36 52.41a15.4 15.4 0 0 1 -10.636-4.408 13.956 13.956 0 0 1 .062-20.5l10.754-10.528v35.428c-.06 0-.12.008-.18.008zm16.18 41.37h72a8 8 0 0 0 8-8v-56h-16v48h-64v-136h23.5a35.4 35.4 0 0 0 -2.684 4.477l-.362.725a34.781 34.781 0 0 0 14.5 46.251l61.046 33.297v91.25h-6.46s-10.784-4.286-11.144-4.375a141.886 141.886 0 0 0 -78.4 2.79z"/></g></svg>