<svg id="Capa_1" enable-background="new 0 0 512 512" height="512" viewBox="0 0 512 512" width="512" xmlns="http://www.w3.org/2000/svg"><g><path d="m444.71 354.96c.09 23.47-12.23 44.02-30.69 55.9h-316.04c-18.46-11.88-30.78-32.43-30.69-55.89.09-25.81 14.9-48.13 36.46-59.07v-143.65c0-84.08 68.15-152.24 152.25-152.25h.08c84.29.04 152.17 69.42 152.17 153.71v142.19c21.56 10.94 36.37 33.26 36.46 59.06z" fill="#ffb427"/><path d="m444.71 354.96c.09 23.47-12.23 44.02-30.69 55.9h-158.02v-410.86h.08c84.29.04 152.17 69.42 152.17 153.71v142.19c21.56 10.94 36.37 33.26 36.46 59.06z" fill="#fe8c00"/><path d="m512 512h-103.29l-15-15-15 15h-245.42l-15-15-15 15h-103.29c0-43.29 28.7-81.34 70.33-93.24l63.48-18.14.28-.08h121.91l121.93.01.31.09 63.43 18.12c20.81 5.95 38.4 18.44 50.78 34.85 12.37 16.41 19.55 36.75 19.55 58.39z" fill="#b75fe8"/><path d="m512 512h-103.29l-15-15-15 15h-122.71v-111.46l121.93.01.31.09 63.43 18.12c20.81 5.95 38.4 18.44 50.78 34.85 12.37 16.41 19.55 36.75 19.55 58.39z" fill="#8b3cbb"/><path d="m103.286 469.333h30v42.667h-30z" fill="#8b3cbb"/><path d="m378.714 469.333h30v42.667h-30z" fill="#5f2980"/><path d="m377.93 400.55c-.11.23-.23.46-.35.69-38.19 73.84-79.88 110.76-121.57 110.76h-.01c-41.69-.01-83.38-36.94-121.57-110.8-.11-.22-.23-.44-.34-.66h121.91z" fill="#d58df4"/><path d="m377.93 400.55c-.11.23-.23.46-.35.69-38.19 73.84-79.88 110.76-121.57 110.76h-.01v-111.46z" fill="#b75fe8"/><path d="m378.24 400.64-.03.03c-.21.19-.42.38-.63.57-34.53 31.17-78.06 46.75-121.58 46.74-43.53-.01-87.05-15.6-121.57-46.78-.21-.19-.41-.37-.62-.56v-.64c.09.18.19.36.28.54l48.77-13.93 17-55.24h112.28l17 55.24 48.79 13.94z" fill="#febda6"/><path d="m378.24 400.64-.03.03c-.21.19-.42.38-.63.57-34.53 31.17-78.06 46.75-121.58 46.74v-116.61h56.14l17 55.24 48.79 13.94z" fill="#ffac94"/><path d="m178.061 250.689h-36.313c-25.684 0-46.506-20.821-46.506-46.506 0-25.684 20.821-46.506 46.506-46.506h20.283z" fill="#febda6"/><path d="m333.958 157.677h36.294c25.685 0 46.506 20.821 46.506 46.506 0 25.684-20.821 46.506-46.506 46.506h-36.294z" fill="#ffac94"/><path d="m349.97 157.68v93.009l-93.97 15.79-93.97-15.79v-93.009h57.41c13.55 0 26.13-4.12 36.56-11.2 17.33-11.73 28.71-31.57 28.71-54.06 18.02 0 34.33 7.3 46.15 19.11 11.8 11.81 19.11 28.13 19.11 46.15z" fill="#ffcdc0"/><path d="m349.97 157.68v93.009l-93.97 15.79v-119.999c17.33-11.73 28.71-31.57 28.71-54.06 18.02 0 34.33 7.3 46.15 19.11 11.8 11.81 19.11 28.13 19.11 46.15z" fill="#febda6"/><path d="m309.496 291.164s-29.729 60.086-53.496 60.086c-25.95 0-49.44-11.2-66.45-29.3-17-18.1-27.52-43.11-27.52-70.73v-.53h37.79c12.66 0 24.89-4.52 34.51-12.74l21.67-18.52z" fill="#edf9ff"/><path d="m349.97 250.69v.53c0 55.24-42.07 100.03-93.97 100.03v-131.82l21.67 18.52c9.62 8.22 21.85 12.74 34.51 12.74z" fill="#c0e1f0"/></g></svg>